<svg xmlns="http://www.w3.org/2000/svg" viewBox="0 0 420 620" fill="none">
  <g stroke="#60765a" stroke-width="3" stroke-linecap="round">
    <path d="M82 630C110 435 185 233 306 53M121 494C96 372 62 258 19 167M174 351C249 278 327 262 397 244"/>
  </g>
  <g fill="#476d4e">
    <path d="M286 86C263 32 304 10 343 0c-4 46-12 75-57 86Z"/>
    <path d="M254 137C195 130 181 81 192 39c44 24 70 47 62 98Z"/>
    <path d="M247 153c22-58 73-64 114-44-31 39-62 58-114 44Z"/>
    <path d="M210 222c-58-16-69-63-56-111 48 28 70 67 56 111Z"/>
    <path d="M202 239c29-55 70-63 120-45-30 43-63 59-120 45Z"/>
    <path d="M170 314c-60-17-78-59-72-113 48 21 85 53 72 113Z"/>
    <path d="M155 354c36-57 83-60 127-33-39 38-78 47-127 33Z"/>
    <path d="M128 432c-60-23-78-62-78-121 54 23 87 67 78 121Z"/>
    <path d="M114 479c40-53 88-58 134-33-36 47-84 49-134 33Z"/>
  </g>
  <g fill="#799571">
    <path d="M70 320c-53-3-68-27-70-64 45 8 70 22 70 64Z"/>
    <path d="M53 264c-6-53 10-79 43-94 12 43-1 74-43 94Z"/>
    <path d="M30 213C-3 194 0 150 9 118c29 29 40 62 21 95Z"/>
    <path d="M268 282c-9-45 8-78 44-101 5 50-3 79-44 101Z"/>
    <path d="M317 264c27-42 51-55 95-48-27 39-55 55-95 48Z"/>
    <path d="M276 281c26 41 70 45 109 27-35-31-67-39-109-27Z"/>
  </g>
  <g stroke="#c0cdb0" stroke-opacity=".4" stroke-width="1.5">
    <path d="m287 84 38-63m-73 113-48-69m43 87 90-35m-128 103-43-79m37 96 94-34m-127 110-58-81m44 120 99-25m-127 105-63-82m50 128 103-27"/>
  </g>
</svg>
